PathFileType	4	(X/Y/Z)	Patient4_TMGait_0pt7_02_right_18.trc.trc
DataRate	CameraRate	NumFrames	NumMarkers	Units	OrigDataRate	OrigDataStartFrame	OrigNumFrames
85.889570552147	85.889570552147	4	33	mm	85.889570552147	1	       141
Frame#	Time	Sacral			L.Shoulder			Chest			R.Shoulder			Neck			R.ASIS			L.ASIS			R.Thigh.Superior			R.Thigh.Lateral			R.Thigh.Inferior			R.Patella			L.Thigh.Superior			L.Thigh.Lateral			L.Thigh.Inferior			L.Patella			L.Shank.Superior			L.Shank.Lateral			L.Shank.Inferior			R.Shank.Superior			R.Shank.Lateral			R.Shank.Inferior			R.Heel			R.Midfoot.Superior			R.Midfoot.Lateral			R.Toe			L.Heel			L.Midfoot.Lateral			L.Midfoot.Superior			L.Toe			L.Elbow			L.Wrist			R.Elbow			R.Wrist			
		X1	Y1	Z1	X2	Y2	Z2	X3	Y3	Z3	X4	Y4	Z4	X5	Y5	Z5	X6	Y6	Z6	X7	Y7	Z7	X8	Y8	Z8	X9	Y9	Z9	X10	Y10	Z10	X11	Y11	Z11	X12	Y12	Z12	X13	Y13	Z13	X14	Y14	Z14	X15	Y15	Z15	X16	Y16	Z16	X17	Y17	Z17	X18	Y18	Z18	X19	Y19	Z19	X20	Y20	Z20	X21	Y21	Z21	X22	Y22	Z22	X23	Y23	Z23	X24	Y24	Z24	X25	Y25	Z25	X26	Y26	Z26	X27	Y27	Z27	X28	Y28	Z28	X29	Y29	Z29	X30	Y30	Z30	X31	Y31	Z31	X32	Y32	Z32	X33	Y33	Z33	

1	19.770000000000	812.439040064870	1010.712634808031	447.794363979648	994.548628738952	1432.096475015796	253.866755552266	1110.087946423623	1358.747948887326	406.176243797404	1043.149089368760	1438.060301981825	585.443255641447	1013.211574074094	1492.631969436528	406.587778826681	1043.159926741397	943.580545198685	555.282031681371	1016.519070833225	960.521664574305	278.585457334454	1119.827262216296	769.349846403484	526.829417054827	1078.949955497015	652.892280381528	606.966560790760	1167.085247113604	609.188536075469	526.662168821641	1181.538674464481	492.727227835962	552.623034489133	1074.245561415041	755.545124960067	301.361040784835	985.898874896662	637.044551250507	249.753739595980	1077.176654390812	561.804483373501	307.298304409103	1081.154079675701	491.456202752421	316.847429172596	1051.818426736613	418.273538501322	310.087937295387	958.498752840939	305.555230549270	263.567228995609	1010.469109230645	193.256356379383	330.888570130661	1094.638073525073	426.735507555369	562.951130554518	967.268499449493	409.320317145850	622.505777824867	937.575406139631	301.863779746338	578.197549777870	736.629580550893	284.321127015022	547.774535216916	879.810533989679	179.806031119780	593.664892359815	772.221001720863	208.915914409576	621.648911555121	906.613808174463	51.649417131667	618.714542326177	882.501575202927	38.862701567697	378.660928108709	950.490128166649	35.482813292624	292.910476906057	1035.547480875239	96.462718149260	315.159607649857	1161.951487031982	42.641262332793	276.869228291274	946.822304128038	1085.850403848331	128.952374144769	1102.064232018328	876.217398787341	126.735648681981	1006.368663963960	1096.220037204805	712.069938524400	1236.658953940583	991.189481127118	666.427921516360	
2	19.781642857143	811.141614204558	1011.434904833072	446.470505708866	996.030860271187	1432.291374202082	253.034188050336	1110.113242200448	1358.595289120955	406.183592536150	1042.327747558840	1438.200333264898	584.962745562578	1013.707504672300	1492.908777638356	405.852061388244	1041.462524215109	944.092688827550	554.294839231210	1015.868965009011	960.654008017302	278.622335675235	1121.329492925344	774.755214021161	525.822019536387	1084.845754677321	657.776997832624	606.641996923979	1173.586780214699	616.486186110248	525.822603491289	1191.866538088958	500.476608397017	551.841648245718	1071.347364061428	754.495140633460	301.734627432179	981.798463361970	637.087666396770	249.594442217190	1071.707223930932	560.825215131246	307.478779911749	1074.677627916143	490.564465697624	317.155853953411	1045.136129040052	417.765952353214	310.165789458678	951.315862908235	305.551882008205	263.480332821729	1002.537956665859	193.016239459049	330.895522686163	1106.472133181539	432.264739630504	562.313574012060	979.462666065394	411.472161612820	621.252618951387	952.843036748109	303.207205076721	577.213612951242	752.409981185381	279.405092682536	545.842126116972	898.964778966975	180.442712008820	592.964372533995	790.390841814324	205.960696622373	620.413633132349	929.783857488207	53.340267190400	618.771139865685	873.822076243080	38.862426179338	378.616042807793	941.886067112154	35.501336347040	292.851751222230	1026.960532197332	96.363821523899	315.165687029419	1153.362085473876	42.475170278568	276.844763325294	956.478294215661	1087.320972712852	124.189509156634	1122.315835858586	887.968518785381	124.237195730455	1000.356253184127	1096.688819288423	711.357582111481	1219.139352617716	971.442287624852	673.424211589346	
3	19.793285714286	809.869260058835	1012.133517334791	445.191474212552	997.528460888691	1432.480291714870	252.238556570929	1110.154943499900	1358.433219350328	406.218172859751	1041.523338622836	1438.334499524560	584.505750827284	1014.208150997004	1493.175358273842	405.148265528228	1039.791341193516	944.602474102809	553.406160302687	1015.220695381327	960.775377195677	278.683897999748	1122.784732037663	780.080440342626	524.882355626087	1090.590156934205	662.600732078397	606.347527710019	1179.935726268061	623.692990521828	525.052037256785	1201.944850831809	508.165215907045	551.126267183564	1068.464345843319	753.459265163111	302.147194669300	977.733589155489	637.142421785419	249.435025713508	1066.280790526112	559.857446106112	307.658645109032	1068.252028973073	489.686934266472	317.452247880497	1038.514140682811	417.266569823550	310.239204947101	944.203293588377	305.547057544256	263.393955255293	994.691054748057	192.780925162070	330.900900865610	1118.133665183012	437.702896109325	561.709119419530	991.503593932704	413.452036949300	620.053571220691	968.006809052061	304.371823784660	576.252261416590	768.075069450269	274.243397610303	544.011338250859	918.051666470260	180.850382410978	592.245028014699	808.494340452147	202.728668326889	619.213423918562	952.964450744119	54.806303017445	618.741909964121	865.247772704621	38.862513682607	378.572096979725	933.383356825100	35.516111302865	292.797026995441	1018.475969913796	96.269729376604	315.170206713017	1144.875373392368	42.312842323282	276.819474056944	965.965632197905	1088.815885857651	119.551343692124	1142.183810207813	899.735033043476	121.866906272515	994.577388702348	1097.140900137127	710.743542574331	1201.452048152293	952.081304614054	680.407841774323	
4	19.804928571429	808.653624337437	1012.790462248837	444.002477940431	999.069009522747	1432.656399031967	251.527991956142	1110.240073748942	1358.244585660273	406.316547080712	1040.771080781853	1438.449648418739	584.107886542986	1014.735206665641	1493.417093123453	404.519369799013	1038.174867675663	945.098735271976	552.709763011641	1014.580830466420	960.869243103116	278.796759386345	1124.131514639867	785.220699596937	524.083249445397	1095.996356924706	667.261281763963	606.115787969701	1185.946243794296	630.669113942739	524.429012396845	1211.497257105005	515.705727658421	550.548287702299	1065.590943345282	752.438255742986	302.633674212126	973.693596057389	637.220394437504	249.279477195380	1060.877034164543	558.903612628655	307.840575319413	1061.852998581705	488.831466062201	317.732183603834	1031.938056954848	416.783031119848	310.306481131494	937.154344728324	305.541911662679	263.310575154477	986.932393412755	192.555719234010	330.905536841193	1129.464514419357	442.943632342467	561.182922579980	1003.341200289889	415.017030023012	618.994608759532	983.136355226215	305.144939517850	575.368977008410	783.821047832924	268.428277561112	542.415396653536	937.277367037717	180.801710387146	591.537406444398	826.792098974578	198.861585790009	618.125866099097	976.493402818526	55.933872942568	618.607213442129	856.798704633086	38.865791347597	378.529509945235	924.997699456507	35.525591430185	292.749669720245	1010.111842374954	96.185497791714	315.171618789861	1136.507199109965	42.157668474761	276.792649075440	975.174047589873	1090.375330444854	115.148605828857	1161.367066802670	911.659034789133	119.771248779361	989.178601264752	1097.573197917964	710.310235001024	1183.304268306952	933.520547893387	687.376819413533	
